<svg width="50" height="50" viewBox="0 0 50 50" fill="none" xmlns="http://www.w3.org/2000/svg">
  <!-- More detailed minimalist wolf head -->
  <path d="M25 10C19 10 14 13 12 17C9 20 8 24 8 28C8 32 9 35 12 38C14 39 15 40 17 40C18 41 19 41 20 41C21 41 22 41 23 41C24 41 25 41 26 41C27 41 28 41 29 40C31 40 32 39 33 38C36 35 37 32 37 28C37 24 36 20 33 17C31 13 26 10 25 10Z" fill="#000"/>
  
  <!-- Left ear -->
  <path d="M17 15C17 12 18 11 20 11C22 11 23 12 23 15" stroke="#000" stroke-width="2" stroke-linecap="round" fill="none"/>
  
  <!-- Right ear -->
  <path d="M27 15C27 12 28 11 30 11C32 11 33 12 33 15" stroke="#000" stroke-width="2" stroke-linecap="round" fill="none"/>
  
  <!-- Left eye -->
  <circle cx="20" cy="22" r="2" fill="#fff"/>
  <circle cx="20" cy="22" r="1" fill="#000"/>
  
  <!-- Right eye -->
  <circle cx="30" cy="22" r="2" fill="#fff"/>
  <circle cx="30" cy="22" r="1" fill="#000"/>
  
  <!-- Snout -->
  <ellipse cx="25" cy="30" rx="4" ry="3" fill="#000"/>
  
  <!-- Nose -->
  <ellipse cx="25" cy="29" rx="1.5" ry="1.2" fill="#fff"/>
  
  <!-- Mouth line -->
  <path d="M25 32L23 34" stroke="#fff" stroke-width="1" stroke-linecap="round"/>
  <path d="M25 32L27 34" stroke="#fff" stroke-width="1" stroke-linecap="round"/>
</svg>


