<svg width="32" height="32" viewBox="0 0 32 32" fill="none" xmlns="http://www.w3.org/2000/svg">
  <!-- Minimalist wolf head silhouette -->
  <path d="M16 5C11 5 7 7.5 5 11C3 13.5 2 17 2 20.5C2 24 3.5 26.5 6 28.5C7.5 29.5 9 30 10.5 30C11.5 30.5 12.5 30.5 13.5 30.5C14.5 30.5 15.5 30.5 16.5 30.5C17.5 30.5 18.5 30.5 19.5 30C21 30 22.5 29.5 24 28.5C26.5 26.5 28 24 28 20.5C28 17 27 13.5 25 11C23 7.5 19 5 16 5Z" fill="#000"/>
  
  <!-- Left ear -->
  <path d="M10 9.5L9 7L11 7L12 9.5" stroke="#000" stroke-width="1.2" stroke-linecap="round" stroke-linejoin="round" fill="none"/>
  
  <!-- Right ear -->
  <path d="M22 9.5L21 7L23 7L24 9.5" stroke="#000" stroke-width="1.2" stroke-linecap="round" stroke-linejoin="round" fill="none"/>
  
  <!-- Left eye -->
  <circle cx="12.5" cy="16" r="1.2" fill="#fff"/>
  
  <!-- Right eye -->
  <circle cx="19.5" cy="16" r="1.2" fill="#fff"/>
  
  <!-- Snout -->
  <ellipse cx="16" cy="21.5" rx="2.2" ry="1.8" fill="#000"/>
  
  <!-- Nose highlight -->
  <ellipse cx="16" cy="21" rx="0.7" ry="0.5" fill="#fff"/>
</svg>
