<svg width="32" height="32" viewBox="0 0 32 32" fill="none" xmlns="http://www.w3.org/2000/svg">
  <!-- Shelby Cobra inspired - aggressive rearing cobra with geometric scales -->
  
  <!-- Thick coiled body base -->
  <ellipse cx="16" cy="26" rx="6" ry="5" fill="#000"/>
  
  <!-- Middle body coil (thick outline) -->
  <path d="M10 24C10 21 12 19 14.5 18C17 17 19.5 17 22 18C24.5 19 26.5 21 26.5 24" stroke="#000" stroke-width="3" stroke-linecap="round" fill="none"/>
  
  <!-- Rising vertical body/neck -->
  <path d="M16 24C16 20 17.5 16 19 12C20 9.5 21 7 22 4" stroke="#000" stroke-width="3" stroke-linecap="round" fill="none"/>
  
  <!-- Aggressive cobra head (turned right, open mouth) -->
  <ellipse cx="22" cy="4" rx="4" ry="3.2" fill="#000" transform="rotate(10 22 4)"/>
  
  <!-- Wide flared hood (Shelby characteristic - very wide) -->
  <path d="M17.5 0.5C17.5 -1 18 -2 19 -2.5C20 -3 21.5 -2.5 22.5 -1C23.5 0.5 24.5 3 25 6C25.5 9 26 12 26 14.5" stroke="#000" stroke-width="2.5" stroke-linecap="round" fill="none"/>
  
  <!-- Hood inner detail lines -->
  <path d="M18.5 -1C19.5 -2 20.5 -2.5 21.5 -2C22.5 -1.5 23.5 0 24.5 2.5C25 4 25.5 6 25.5 8" stroke="#000" stroke-width="1.8" stroke-linecap="round" fill="none"/>
  <path d="M19.5 0C20.5 -0.5 21.5 -1 22.5 -0.5C23.5 0 24.5 1.5 25 3.5" stroke="#000" stroke-width="1.2" stroke-linecap="round" fill="none"/>
  
  <!-- Eyes (dark, piercing) -->
  <circle cx="20" cy="3.5" r="1.1" fill="#fff"/>
  <circle cx="20" cy="3.5" r="0.6" fill="#000"/>
  <circle cx="24" cy="3.8" r="1.1" fill="#fff"/>
  <circle cx="24" cy="3.8" r="0.6" fill="#000"/>
  
  <!-- Open mouth with sharp fangs (aggressive) -->
  <path d="M22 7L20.5 8.5M22 7L23.5 8.5" stroke="#fff" stroke-width="1.3" stroke-linecap="round"/>
  <!-- Upper fangs -->
  <path d="M21.2 7.5L20.5 8.8M22.8 7.5L23.5 8.8" stroke="#fff" stroke-width="1" stroke-linecap="round"/>
  <!-- Lower jaw line -->
  <path d="M21.5 8L22.5 8" stroke="#fff" stroke-width="0.8" stroke-linecap="round"/>
  
  <!-- Forked tongue (extended) -->
  <path d="M22 8.5L20.8 10.5M22 8.5L23.2 10.5" stroke="#fff" stroke-width="0.8" stroke-linecap="round"/>
  
  <!-- Geometric diamond/square scale patterns (Shelby style) -->
  <!-- Base coil scales - larger diamonds -->
  <path d="M13 25.5L14 24.5L15 25.5L14 26.5Z" fill="#fff" opacity="0.4"/>
  <path d="M15.5 25.5L16.5 24.5L17.5 25.5L16.5 26.5Z" fill="#fff" opacity="0.4"/>
  <path d="M18 25.5L19 24.5L20 25.5L19 26.5Z" fill="#fff" opacity="0.4"/>
  <path d="M20.5 25.5L21.5 24.5L22.5 25.5L21.5 26.5Z" fill="#fff" opacity="0.4"/>
  
  <!-- Middle coil scales - medium diamonds -->
  <path d="M12 23L13 22L14 23L13 24Z" fill="#fff" opacity="0.35"/>
  <path d="M14 23L15 22L16 23L15 24Z" fill="#fff" opacity="0.35"/>
  <path d="M16 23L17 22L18 23L17 24Z" fill="#fff" opacity="0.35"/>
  <path d="M18 23L19 22L20 23L19 24Z" fill="#fff" opacity="0.35"/>
  <path d="M20 23L21 22L22 23L21 24Z" fill="#fff" opacity="0.35"/>
  <path d="M22 23L23 22L24 23L23 24Z" fill="#fff" opacity="0.35"/>
  
  <!-- Upper body scales - smaller diamonds -->
  <path d="M13.5 20L14.5 19L15.5 20L14.5 21Z" fill="#fff" opacity="0.3"/>
  <path d="M16 20L17 19L18 20L17 21Z" fill="#fff" opacity="0.3"/>
  <path d="M18.5 20L19.5 19L20.5 20L19.5 21Z" fill="#fff" opacity="0.3"/>
  <path d="M21 20L22 19L23 20L22 21Z" fill="#fff" opacity="0.3"/>
  
  <!-- Neck scales (vertical pattern, smaller) -->
  <path d="M15.5 17L16 16L16.5 17L16 18Z" fill="#fff" opacity="0.25"/>
  <path d="M17 15L17.5 14L18 15L17.5 16Z" fill="#fff" opacity="0.25"/>
  <path d="M18.5 12L19 11L19.5 12L19 13Z" fill="#fff" opacity="0.25"/>
  <path d="M19.5 9L20 8L20.5 9L20 10Z" fill="#fff" opacity="0.25"/>
  <path d="M20.5 6L21 5L21.5 6L21 7Z" fill="#fff" opacity="0.25"/>
</svg>
