<svg width="32" height="32" viewBox="0 0 32 32" fill="none" xmlns="http://www.w3.org/2000/svg">
  <!-- Minimalist cobra - Shelby Cobra inspired, classic coiled striking pose -->
  
  <!-- Coiled body (base) -->
  <ellipse cx="16" cy="22" rx="5.5" ry="4.5" fill="#000"/>
  
  <!-- Body coil (upper) -->
  <path d="M10.5 20C10.5 17 12.5 15 15 14C17.5 13 20 13 22.5 14C25 15 27 17 27 20" stroke="#000" stroke-width="2.2" stroke-linecap="round" fill="none"/>
  
  <!-- Rising body/neck -->
  <path d="M16 20C16 16 17 12 18.5 9C19.5 7 20.5 5.5 21.5 4.5" stroke="#000" stroke-width="2.2" stroke-linecap="round" fill="none"/>
  
  <!-- Cobra head -->
  <ellipse cx="21.5" cy="4.5" rx="3.2" ry="2.5" fill="#000"/>
  
  <!-- Hood flare (distinctive cobra feature) -->
  <path d="M19 3.5C19 2 19.5 1 20.5 0.5C21.5 0 22.5 0.5 23 1.5C23.5 2.5 24 3.5 24 5" stroke="#000" stroke-width="1.6" stroke-linecap="round" fill="none"/>
  
  <!-- Left eye -->
  <circle cx="20" cy="4" r="0.8" fill="#fff"/>
  
  <!-- Right eye -->
  <circle cx="23" cy="4" r="0.8" fill="#fff"/>
  
  <!-- Forked tongue (striking pose) -->
  <path d="M21.5 6.5L20.5 8M21.5 6.5L22.5 8" stroke="#fff" stroke-width="0.7" stroke-linecap="round"/>
  
  <!-- Minimal body detail -->
  <path d="M12.5 18C13.5 19 14.5 19.5 16 19.5C17.5 19.5 18.5 19 19.5 18" stroke="#fff" stroke-width="0.4" stroke-linecap="round" fill="none" opacity="0.3"/>
</svg>
