<svg width="48" height="48" viewBox="0 0 100 100" fill="none" xmlns="http://www.w3.org/2000/svg">
  <!-- Highly Detailed Shelby Cobra - Max accuracy to reference image -->
  
  <!-- Outer Body Coil (Bottom) -->
  <path d="M20 82C25 82 35 78 45 72C55 65 65 65 75 70C85 75 90 82 85 88C80 94 70 96 60 96C50 96 40 92 30 88C20 84 15 84 15 80C15 76 18 74 20 82Z" fill="black"/>
  <path d="M25 85C35 90 45 92 55 92C65 92 75 90 85 85C95 80 95 75 85 70C75 65 65 65 55 70C45 75 35 80 25 85Z" fill="black"/>
  
  <!-- Rising Body/Neck -->
  <path d="M55 70C55 55 58 40 62 30C66 20 70 10 75 5" stroke="black" stroke-width="9" stroke-linecap="round" fill="none"/>
  
  <!-- Massive Flared Hood -->
  <path d="M45 22C40 12 45 2 55 1C65 -1 75 2 80 8C85 14 85 24 80 34C75 44 65 52 55 55" stroke="black" stroke-width="5" stroke-linecap="round" fill="none"/>
  
  <!-- Head and Jaws (Turned, Open Mouth) -->
  <path d="M75 5C75 2 80 0 85 0C90 0 95 3 95 8C95 13 90 16 85 18C80 20 75 18 75 5Z" fill="black"/>
  <!-- Lower Jaw -->
  <path d="M85 18L95 24L85 28Z" fill="black"/>
  
  <!-- White details inside the head/mouth -->
  <path d="M88 12L94 21L88 23Z" fill="white"/>
  <!-- Eye line -->
  <path d="M82 6L88 4" stroke="white" stroke-width="1.5" stroke-linecap="round"/>
  
  <!-- Inner Segmented Body (Belly Scales) -->
  <g stroke="white" stroke-width="2.5">
    <path d="M58 35H73"/>
    <path d="M56 43H71"/>
    <path d="M54 51H69"/>
    <path d="M52 59H67"/>
    <path d="M50 67H65"/>
    <path d="M48 75H63"/>
    <path d="M46 83H61"/>
  </g>
  
  <!-- Dense Diamond Scale Pattern (Outer Body) -->
  <g fill="white" opacity="0.9">
    <!-- Hood Top Patterns -->
    <rect x="52" y="5" width="3.5" height="3.5" transform="rotate(45 52 5)"/>
    <rect x="58" y="5" width="3.5" height="3.5" transform="rotate(45 58 5)"/>
    <rect x="64" y="5" width="3.5" height="3.5" transform="rotate(45 64 5)"/>
    <rect x="70" y="5" width="3.5" height="3.5" transform="rotate(45 70 5)"/>
    
    <!-- Body Side Patterns (Staggered Diamonds) -->
    <rect x="42" y="25" width="4.5" height="4.5" transform="rotate(45 42 25)"/>
    <rect x="48" y="32" width="4.5" height="4.5" transform="rotate(45 48 32)"/>
    <rect x="42" y="39" width="4.5" height="4.5" transform="rotate(45 42 39)"/>
    <rect x="36" y="46" width="4.5" height="4.5" transform="rotate(45 36 46)"/>
    <rect x="42" y="53" width="4.5" height="4.5" transform="rotate(45 42 53)"/>
    <rect x="36" y="60" width="4.5" height="4.5" transform="rotate(45 36 60)"/>
    <rect x="30" y="67" width="4.5" height="4.5" transform="rotate(45 30 67)"/>
    <rect x="36" y="74" width="4.5" height="4.5" transform="rotate(45 36 74)"/>
    <rect x="30" y="81" width="4.5" height="4.5" transform="rotate(45 30 81)"/>
    
    <!-- Tail Section Patterns -->
    <rect x="75" y="75" width="4" height="4" transform="rotate(45 75 75)"/>
    <rect x="82" y="75" width="4" height="4" transform="rotate(45 82 75)"/>
    <rect x="78" y="83" width="4" height="4" transform="rotate(45 78 83)"/>
    <rect x="85" y="83" width="4" height="4" transform="rotate(45 85 83)"/>
  </g>
</svg>
